<?xml version="1.0" encoding="UTF-8"?>
<svg width="85px" height="85px" viewBox="0 0 85 85" version="1.1" xmlns="http://www.w3.org/2000/svg" xmlns:xlink="http://www.w3.org/1999/xlink">
    <title>BD9B836A-DF40-46FB-ABC8-4A1844AE3901</title>
    <defs>
        <filter x="-36.4%" y="-36.4%" width="172.7%" height="172.7%" filterUnits="objectBoundingBox" id="filter-1">
            <feOffset dx="0" dy="3" in="SourceAlpha" result="shadowOffsetOuter1"></feOffset>
            <feGaussianBlur stdDeviation="3.5" in="shadowOffsetOuter1" result="shadowBlurOuter1"></feGaussianBlur>
            <feColorMatrix values="0 0 0 0 0.0156862745   0 0 0 0 0.650980392   0 0 0 0 0.482352941  0 0 0 0.2 0" type="matrix" in="shadowBlurOuter1" result="shadowMatrixOuter1"></feColorMatrix>
            <feMerge>
                <feMergeNode in="shadowMatrixOuter1"></feMergeNode>
                <feMergeNode in="SourceGraphic"></feMergeNode>
            </feMerge>
        </filter>
        <linearGradient x1="50%" y1="0%" x2="50%" y2="50%" id="linearGradient-2">
            <stop stop-color="#0EEDCE" offset="0%"></stop>
            <stop stop-color="#06D6A0" offset="100%"></stop>
        </linearGradient>
    </defs>
    <g id="Absolute-Final" stroke="none" stroke-width="1" fill="none" fill-rule="evenodd">
        <g id="Homepage-2023-final-Design-desktop" transform="translate(-726.000000, -4708.000000)">
            <g id="Group-42" transform="translate(220.000000, 4543.000000)">
                <g id="Group-20" transform="translate(511.000000, 170.000000)">
                    <g id="art-direction" filter="url(#filter-1)" transform="translate(10.000000, 10.000000)">
                        <rect id="Rectangle" fill="url(#linearGradient-2)" x="0" y="0" width="55" height="55" rx="27.5"></rect>
                        <path d="M19.8768473,15.2309154 C19.177952,15.2419978 18.6198514,15.8168563 18.6294223,16.515951 L18.6294223,29.1914603 L17.3621969,29.1914603 C16.9051899,29.1849954 16.4801049,29.4251653 16.2497153,29.8200043 C16.0193257,30.2148434 16.0193257,30.703179 16.2497153,31.098018 C16.4801049,31.492857 16.9051899,31.733027 17.3621969,31.7265621 L19.060081,31.7265621 C20.6495068,33.3353378 22.5722183,34.7628245 24.6982439,36.0367309 C23.0318362,36.8171227 21.2883174,37.5275546 19.4932146,38.1311598 C19.0473345,38.261847 18.7086948,38.6261066 18.6107321,39.0804068 C18.5127693,39.534707 18.6711908,40.0062052 19.0235727,40.3091137 C19.3759546,40.6120221 19.8657958,40.6977723 20.3000808,40.5325756 C22.7815438,39.6981798 25.1907098,38.6877845 27.4455486,37.5419476 C29.7383179,38.6890926 32.1887656,39.6881966 34.6999197,40.5325756 C35.1342051,40.6977739 35.6240477,40.6120243 35.9764305,40.3091155 C36.3288134,40.0062067 36.4872351,39.5347073 36.3892715,39.0804063 C36.2913078,38.6261053 35.9526664,38.2618457 35.5067849,38.1311598 C33.6711393,37.5139221 31.8906851,36.8014773 30.1928539,36.0194009 C32.3587233,34.7178365 34.318424,33.2834949 35.9399188,31.7265621 L37.6378031,31.7265621 C38.0948101,31.733027 38.5198951,31.492857 38.7502847,31.098018 C38.9806743,30.703179 38.9806743,30.2148434 38.7502847,29.8200043 C38.5198951,29.4251653 38.0948101,29.1849954 37.6378031,29.1914603 L36.3705777,29.1914603 L36.3705777,16.515951 C36.3752683,16.1733315 36.2410968,15.8434054 35.9986348,15.6013475 C35.7561727,15.3592896 35.4260737,15.2257189 35.0835519,15.2309154 C34.3846566,15.2419978 33.826556,15.8168563 33.8361269,16.515951 L21.1638731,16.515951 C21.1685636,16.1733315 21.0343921,15.8434054 20.7919301,15.6013475 C20.5494681,15.3592896 20.219369,15.2257189 19.8768473,15.2309154 L19.8768473,15.2309154 Z M21.1638731,22.8537056 L33.8361269,22.8537056 L33.8361269,29.1914603 L21.1638731,29.1914603 L21.1638731,22.8537056 Z M22.9879846,31.7265621 L31.9253893,31.7265621 C30.5814321,32.756015 29.0818065,33.7426019 27.4430737,34.6503471 C25.807438,33.753248 24.3146302,32.7717833 22.9879846,31.7265621 Z" id="Shape" fill="#CDF6EC" fill-rule="nonzero"></path>
                    </g>
                </g>
            </g>
        </g>
    </g>
</svg>