<svg xmlns="http://www.w3.org/2000/svg" xmlns:xlink="http://www.w3.org/1999/xlink" viewBox="194 193.99 1325.62 194.01"><defs><style>.a{fill:none;}.b{fill:#f3f6f7;}.c{clip-path:url(#a);}</style><clipPath id="a"><rect class="a" x="1903.9" y="-1324.11" width="1000" height="1000"/></clipPath></defs><path class="b" d="M332.56,249.42h0A55.43,55.43,0,0,0,277.13,194H197a3,3,0,0,0-3,3V385a3,3,0,0,0,3,3h80.14a55.43,55.43,0,0,0,55.43-55.43h0a55.23,55.23,0,0,0-16.49-39.43,3,3,0,0,1,0-4.28A55.23,55.23,0,0,0,332.56,249.42Z"/><path class="b" d="M513,383.81l78.59-183.38a3,3,0,0,1,5.52,0l78.59,183.38a3,3,0,0,1-2.76,4.18H515.71A3,3,0,0,1,513,383.81Z"/><path class="b" d="M680.44,194H840.72a3,3,0,0,1,3,3V304.85A83.14,83.14,0,0,1,760.58,388h0a83.14,83.14,0,0,1-83.14-83.14V197a3,3,0,0,1,3-3Z"/><path class="b" d="M1065.43,197a3,3,0,0,0-3-3h-188a3,3,0,0,0-3,3v77.14a3,3,0,0,0,3,3h49.43a3,3,0,0,1,3,3V385a3,3,0,0,0,3,3H1007a3,3,0,0,0,3-3V280.13a3,3,0,0,1,3-3h49.43a3,3,0,0,0,3-3Z"/><path class="b" d="M1519.37,198.18a3,3,0,0,0-2.76-4.19H1359.43a3,3,0,0,0-2.76,4.19l53.39,124.58a3,3,0,0,1,.25,1.18V385a3,3,0,0,0,3,3h49.42a3,3,0,0,0,3-3V323.94a3,3,0,0,1,.25-1.18Z"/><rect class="b" x="1093.14" y="193.99" width="83.14" height="193.99" rx="3"/><path class="b" d="M1342.56,197a3,3,0,0,0-3-3H1207a3,3,0,0,0-3,3V385a3,3,0,0,0,3,3h77.14a3,3,0,0,0,3-3V335.56a3,3,0,0,1,3-3h21.71a3,3,0,0,0,3-3V280.13a3,3,0,0,1,3-3h21.71a3,3,0,0,0,3-3Z"/><path class="b" d="M471.13,301.85V252.42a3,3,0,0,0-3-3H446.42a3,3,0,0,1-3-3V197a3,3,0,0,0-3-3H363.27a3,3,0,0,0-3,3V385a3,3,0,0,0,3,3H495.84a3,3,0,0,0,3-3V307.85a3,3,0,0,0-3-3H474.13A3,3,0,0,1,471.13,301.85Z"/></svg>