<?xml version="1.0" encoding="UTF-8"?>
<svg width="85px" height="85px" viewBox="0 0 85 85" version="1.1" xmlns="http://www.w3.org/2000/svg" xmlns:xlink="http://www.w3.org/1999/xlink">
    <title>9441D8B1-2643-4150-AF65-51E8E1B0550C</title>
    <defs>
        <filter x="-36.4%" y="-36.4%" width="172.7%" height="172.7%" filterUnits="objectBoundingBox" id="filter-1">
            <feOffset dx="0" dy="3" in="SourceAlpha" result="shadowOffsetOuter1"></feOffset>
            <feGaussianBlur stdDeviation="3.5" in="shadowOffsetOuter1" result="shadowBlurOuter1"></feGaussianBlur>
            <feColorMatrix values="0 0 0 0 0.0666666667   0 0 0 0 0.541176471   0 0 0 0 0.698039216  0 0 0 0.2 0" type="matrix" in="shadowBlurOuter1" result="shadowMatrixOuter1"></feColorMatrix>
            <feMerge>
                <feMergeNode in="shadowMatrixOuter1"></feMergeNode>
                <feMergeNode in="SourceGraphic"></feMergeNode>
            </feMerge>
        </filter>
        <linearGradient x1="50%" y1="0%" x2="50%" y2="50%" id="linearGradient-2">
            <stop stop-color="#59D9F6" offset="0%"></stop>
            <stop stop-color="#2DB1EA" offset="100%"></stop>
        </linearGradient>
    </defs>
    <g id="Absolute-Final" stroke="none" stroke-width="1" fill="none" fill-rule="evenodd">
        <g id="Homepage-2023-final-Design-desktop" transform="translate(-726.000000, -4538.000000)">
            <g id="Group-42" transform="translate(220.000000, 4543.000000)">
                <g id="Group-17" transform="translate(511.000000, 0.000000)">
                    <g id="creative-stratagy" filter="url(#filter-1)" transform="translate(10.000000, 10.000000)">
                        <rect id="Rectangle" fill="url(#linearGradient-2)" x="0" y="0" width="55" height="55" rx="27.5"></rect>
                        <g id="icons8-windows_10_personalization" transform="translate(13.538462, 13.538462)" fill="#D5EFFA" fill-rule="nonzero">
                            <path d="M22.3672008,1.75658021e-05 C21.9414941,-0.0021901746 21.5421488,0.203829822 21.3001786,0.550506128 L17.620965,5.81360387 L1.28847961,5.81360387 C0.576901444,5.81367428 0,6.38460369 0,7.08890251 L0,22.3924863 C0,23.0967851 0.576901444,23.6677145 1.28847961,23.6677849 L11.5963165,23.6677849 L11.5963165,26.2183822 L7.73087767,26.2183822 C7.26620564,26.2118779 6.83399102,26.4535158 6.59973724,26.8507682 C6.36548345,27.2480206 6.36548345,27.7393412 6.59973724,28.1365936 C6.83399102,28.533846 7.26620564,28.7754839 7.73087767,28.7691076 L18.0387146,28.7691076 C18.5033866,28.7754839 18.9356012,28.533846 19.169855,28.1365936 C19.4041088,27.7393412 19.4041088,27.2480206 19.169855,26.8507682 C18.9356012,26.4535158 18.5033866,26.2118779 18.0387146,26.2183822 L14.1732757,26.2183822 L14.1732757,23.6677849 L24.4811126,23.6677849 C25.1926908,23.6677145 25.7695211,23.0967851 25.7695922,22.3924863 L25.7695922,7.68171718 L27.6947624,4.92687277 C28.0988173,4.34764394 27.9524008,3.55393794 27.3676084,3.15341059 L23.0919705,0.226699817 C22.8789013,0.0807371429 22.626321,0.00174522272 22.3672008,1.75658021e-05 L22.3672008,1.75658021e-05 Z M22.6868043,3.0512871 L24.8409811,4.52585116 L18.9144787,13.0045946 L17.9858663,12.3669453 L16.7603005,11.5275397 L22.6868043,3.0512871 Z M2.57695922,8.36420116 L15.8392399,8.36420116 L13.9090369,11.1240271 C13.7514041,11.3505105 13.6719582,11.6213585 13.6825467,11.8961806 L13.5265195,16.0184837 C13.5114214,16.018221 13.4963198,16.018221 13.4812217,16.0184837 L5.15391845,16.0184837 C4.68924642,16.0119793 4.2570318,16.2536173 4.02277802,16.6508697 C3.78852423,17.0481221 3.78852423,17.5394426 4.02277802,17.936695 C4.2570318,18.3339474 4.68924642,18.5755854 5.15391845,18.569081 L13.4812217,18.569081 C13.8969713,18.5740876 14.2896169,18.3802368 14.5356606,18.0485003 L19.4958033,16.0284476 C19.8228588,15.9630589 20.111539,15.7746574 20.3011031,15.5028843 L23.192633,11.3656364 L23.192633,21.1171877 L2.57695922,21.1171877 L2.57695922,8.36420116 Z" id="Shape"></path>
                        </g>
                    </g>
                </g>
            </g>
        </g>
    </g>
</svg>