<?xml version="1.0" encoding="UTF-8"?>
<svg width="22.0134145px" height="7.03455405px" viewBox="0 0 22.0134145 7.03455405" version="1.1" xmlns="http://www.w3.org/2000/svg" xmlns:xlink="http://www.w3.org/1999/xlink">
    <title>icons8-right_arrow</title>
    <g id="Landing-Pages" stroke="none" stroke-width="1" fill="none" fill-rule="evenodd">
        <g id="Producer-Landing-V2-Desktop" transform="translate(-1154.000000, -3086.000000)" fill="#000000" fill-rule="nonzero">
            <g id="Group-17" transform="translate(0.000000, 1777.000000)">
                <g id="Group-7" transform="translate(220.000000, 742.000000)">
                    <g id="Group-30" transform="translate(902.000000, 564.000000)">
                        <g id="icons8-right_arrow" transform="translate(32.000000, 3.000000)">
                            <path d="M18.5826015,0.00694779966 C18.3078205,-0.0406303003 18.0142425,0.1602603 18.0142425,0.4835103 L18.0142425,2.5167134 L1.01424249,2.5167134 C0.653606573,2.51161311 0.318161125,2.7010887 0.136354768,3.01258625 C-0.0454515892,3.3240838 -0.0454515892,3.709343 0.136354768,4.02084055 C0.318161125,4.3323381 0.653606573,4.52181369 1.01424249,4.5167134 L18.0142425,4.5167134 L18.0142425,6.5499164 C18.0142425,6.9809164 18.5344615,7.1967134 18.8384615,6.8917134 L21.8716645,3.8585104 C22.0606645,3.6695104 22.0606645,3.3639164 21.8716645,3.1749164 L18.8384615,0.1417134 C18.7624615,0.0657133997 18.6741955,0.0228070997 18.5826015,0.00694779966 Z" id="Path"></path>
                        </g>
                    </g>
                </g>
            </g>
        </g>
    </g>
</svg>