<?xml version="1.0" encoding="UTF-8"?>
<svg width="24px" height="24px" viewBox="0 0 24 24" version="1.1" xmlns="http://www.w3.org/2000/svg" xmlns:xlink="http://www.w3.org/1999/xlink">
    <title>1242C89A-AB92-4ED5-A14B-6B37FEE2C81B</title>
    <g id="Artist-Index-Page" stroke="none" stroke-width="1" fill="none" fill-rule="evenodd">
        <g id="Artist-Index-Desktop" transform="translate(-689.000000, -4024.000000)">
            <g id="footer/desktop" transform="translate(3.000000, 3528.000000)">
                <g id="icon/instagram" transform="translate(686.000000, 496.000000)">
                    <rect id="Rectangle" x="0" y="0" width="24" height="24"></rect>
                    <path d="M8,3 C5.239,3 3,5.239 3,8 L3,16 C3,18.761 5.239,21 8,21 L16,21 C18.761,21 21,18.761 21,16 L21,8 C21,5.239 18.761,3 16,3 L8,3 Z M18,5 C18.552,5 19,5.448 19,6 C19,6.552 18.552,7 18,7 C17.448,7 17,6.552 17,6 C17,5.448 17.448,5 18,5 Z M12,7 C14.761,7 17,9.239 17,12 C17,14.761 14.761,17 12,17 C9.239,17 7,14.761 7,12 C7,9.239 9.239,7 12,7 Z M12,9 C10.3431458,9 9,10.3431458 9,12 C9,13.6568542 10.3431458,15 12,15 C13.6568542,15 15,13.6568542 15,12 C15,10.3431458 13.6568542,9 12,9 Z" id="Shape" fill="currentColor" fill-rule="nonzero"></path>
                </g>
            </g>
        </g>
    </g>
</svg>
