<?xml version="1.0" encoding="UTF-8"?>
<svg viewBox="0 0 1920 561" preserveAspectRatio="none" version="1.1" xmlns="http://www.w3.org/2000/svg" xmlns:xlink="http://www.w3.org/1999/xlink">
    <title>join our community bg</title>
    <defs>
        <linearGradient x1="35.195891%" y1="45.1396304%" x2="40.0700219%" y2="50.749223%" id="linearGradient-1">
            <stop stop-color="#FFFFFF" offset="0%"></stop>
            <stop stop-color="#F3F6F7" offset="100%"></stop>
        </linearGradient>
    </defs>
    <g id="For-Prototype" stroke="none" stroke-width="1" fill="none" fill-rule="evenodd">
        <g id="Artboard" transform="translate(0.000000, -324.000000)" fill="url(#linearGradient-1)">
            <path d="M1920,855.018329 C1920,855.018329 1862.55858,872.494343 1591.33545,872.494343 C1228.102,872.494343 1301.67715,857.47155 1019.51429,857.47155 C703.373672,857.47155 777.492652,885 412.667115,885 C122.788132,885 120.171426,869.5 -1.59161573e-12,869.5 L-0.00300603572,374.723738 C32.6384913,353.982526 113.764804,339.815071 252.309879,343.3651 C335.559448,346.056637 460.918843,365.492302 534.569463,374.424932 C674.788914,391.431287 750.205524,383.527737 824.10797,374.965898 L834.182135,373.796572 C837.027096,373.466568 839.874076,373.137223 842.726687,372.809919 L846.152755,372.418224 C877.015855,368.903384 908.70429,365.691307 945.767638,364.525346 C1057.79805,361.032046 1193.5127,393.715756 1307.67275,402.001688 L1407.44162,402.000505 C1495.97551,396.574284 1505.1726,382.69746 1601.7613,347.553515 C1662.27366,325.535996 1785.89347,318.577681 1863.42798,329.303738 C1888.10211,332.786829 1907.98391,338.013616 1920.0003,345.236316 L1920.00007,394.931525 C1918.00422,397.297191 1915.78811,399.654135 1913.36113,402.000317 L1920,402 L1919.99773,452.502009 L1919.99901,452.501695 L1920,855.018329 Z" id="join-our-community-bg"></path>
        </g>
    </g>
</svg>