<?xml version="1.0" encoding="UTF-8"?>
<svg width="85px" height="85px" viewBox="0 0 85 85" version="1.1" xmlns="http://www.w3.org/2000/svg" xmlns:xlink="http://www.w3.org/1999/xlink">
    <title>D1348608-3A7A-4DAA-8DB2-B8DF0884EEDC</title>
    <defs>
        <filter x="-36.4%" y="-36.4%" width="172.7%" height="172.7%" filterUnits="objectBoundingBox" id="filter-1">
            <feOffset dx="0" dy="3" in="SourceAlpha" result="shadowOffsetOuter1"></feOffset>
            <feGaussianBlur stdDeviation="3.5" in="shadowOffsetOuter1" result="shadowBlurOuter1"></feGaussianBlur>
            <feColorMatrix values="0 0 0 0 1   0 0 0 0 0.71372549   0 0 0 0 0.0392156863  0 0 0 0.2 0" type="matrix" in="shadowBlurOuter1" result="shadowMatrixOuter1"></feColorMatrix>
            <feMerge>
                <feMergeNode in="shadowMatrixOuter1"></feMergeNode>
                <feMergeNode in="SourceGraphic"></feMergeNode>
            </feMerge>
        </filter>
        <linearGradient x1="50%" y1="0%" x2="50%" y2="50%" id="linearGradient-2">
            <stop stop-color="#FFDC18" offset="0%"></stop>
            <stop stop-color="#FFB60A" offset="100%"></stop>
        </linearGradient>
    </defs>
    <g id="Absolute-Final" stroke="none" stroke-width="1" fill="none" fill-rule="evenodd">
        <g id="Homepage-2023-final-Design-desktop" transform="translate(-726.000000, -4793.000000)">
            <g id="Group-42" transform="translate(220.000000, 4543.000000)">
                <g id="Group-22" transform="translate(511.000000, 255.000000)">
                    <g id="location-sourcing" filter="url(#filter-1)" transform="translate(10.000000, 10.000000)">
                        <rect id="Rectangle" fill="url(#linearGradient-2)" x="0" y="0" width="55" height="55" rx="27.5"></rect>
                        <g id="icons8-location" transform="translate(13.538462, 13.538462)" fill="#FFF5E0" fill-rule="nonzero">
                            <path d="M22.8462236,0 C20.0425313,0 17.7693702,2.27325498 17.7693702,5.07706304 C17.7693702,7.69428903 20.412111,11.1610307 21.8843985,12.8885015 C22.3908146,13.4825179 23.3016325,13.4825179 23.8080487,12.8885015 C25.2790682,11.1610307 27.9230769,7.69428903 27.9230769,5.07706304 C27.9230769,2.27325498 25.6499158,0 22.8462236,0 Z M12.6925168,2.53853152 C8.55361214,2.53853152 4.88245215,4.54016362 2.56359938,7.61559456 L2.53881012,7.61559456 L2.53881012,7.64782198 C0.544875963,10.3107415 -0.447212513,13.7649485 0.193740224,17.4623197 C1.08599708,22.6091924 5.18730133,26.7739909 10.3276157,27.7081705 C18.360467,29.1665569 25.3846502,23.0041726 25.3846502,15.2311891 C25.3846502,15.1423405 25.3735243,15.0559911 25.3722551,14.9684118 C25.0714515,15.3060364 24.8229637,15.570936 24.6731965,15.7245172 L22.4421581,18.0448936 C22.0030103,19.5642048 21.2121507,20.9323146 20.1739342,22.070846 C19.845208,21.0503563 18.8989701,20.3082522 17.7693702,20.3082522 L16.5001569,20.3082522 L16.5001569,17.7697206 C16.5001569,16.367182 15.3642109,15.2311891 13.9617302,15.2311891 L10.1540902,15.2311891 C9.4534844,15.2311891 8.88487682,14.6625581 8.88487682,13.9619234 C8.88487682,13.2612887 9.4534844,12.6926576 10.1540902,12.6926576 C10.8546959,12.6926576 11.4233035,12.1240265 11.4233035,11.4233918 L11.4233035,10.1541261 C11.4233035,9.45349138 11.9919111,8.88486032 12.6925168,8.88486032 L13.9617302,8.88486032 C14.7092968,8.88486032 15.3762291,8.55604116 15.8407612,8.04198852 C15.4701509,7.05069197 15.2309435,6.04424355 15.2309435,5.07706304 C15.2309435,4.31169579 15.3462033,3.57498614 15.558162,2.87815924 C14.6354451,2.66365333 13.6786956,2.53853152 12.6925168,2.53853152 Z M22.8462236,3.26240965 C23.8476329,3.26240965 24.6608026,4.07561235 24.6608026,5.07706304 C24.6608026,6.07851372 23.8476329,6.89171643 22.8462236,6.89171643 C21.8448142,6.89171643 21.0316445,6.07851372 21.0316445,5.07706304 C21.0316445,4.07561235 21.8448142,3.26240965 22.8462236,3.26240965 Z M2.80653481,12.960394 L5.0772368,15.2311891 L8.88487682,19.0389864 L8.88487682,20.3082522 C8.88487682,21.7107908 10.0208228,22.8467837 11.4233035,22.8467837 L11.4233035,25.2985495 C6.42260294,24.6702629 2.53881012,20.3996393 2.53881012,15.2311891 C2.53881012,14.4493214 2.63772944,13.6914898 2.80653481,12.960394 Z" id="Shape"></path>
                        </g>
                    </g>
                </g>
            </g>
        </g>
    </g>
</svg>