<?xml version="1.0" encoding="UTF-8"?>
<svg width="1271px" height="943px" viewBox="0 0 1271 943" version="1.1" xmlns="http://www.w3.org/2000/svg" xmlns:xlink="http://www.w3.org/1999/xlink">
    <title>B2EF9DB5-BDAF-4727-BDC6-E664E8E93F46</title>
    <g id="Absolute-Final" stroke="none" stroke-width="1" fill="none" fill-rule="evenodd">
        <g id="Homepage-2023-final-Design-desktop" transform="translate(-584.000000, 233.000000)">
            <g id="Paint-Blob-1" transform="translate(1219.549197, 238.899235) scale(-1, 1) translate(-1219.549197, -238.899235) translate(586.000000, -231.000000)">
                <path d="M752.195501,31.5121507 C707.424071,28.8796383 663.706085,72.5793441 663.706085,131.021119 C663.706085,235.795113 678.981044,260.540729 631.576,298.448908 C584.170955,336.357086 459.864395,282.653833 408.772292,323.194524 C357.153466,364.261718 366.634474,442.184085 248.121864,442.184085 C207.037492,442.184085 132.242867,433.760045 94.3188312,448.502114 C-1.01798008,489.042805 8.46302878,580.127734 62.7154683,649.099559 C99.0593356,699.117295 175.434129,705.961827 231.79346,680.163205 C273.404554,660.682614 322.916489,666.474141 361.89397,691.219757 C389.810274,709.120842 412.459351,733.866458 434.581705,759.138577 C455.650613,783.357691 476.719522,808.103308 505.162548,823.37188 C523.071121,832.848924 543.086584,838.113949 563.62877,840.746462 C612.087259,847.590994 661.599194,843.378974 707.950793,828.110402 C726.386088,822.318875 742.714492,807.576805 760.623065,803.891288 C781.691973,799.679268 808.554832,811.262323 823.82979,825.47789 C840.684917,841.272964 850.692649,862.859566 865.440885,880.76065 C888.616684,909.191784 921.800215,920.248336 949.189796,891.817202 C992.381059,852.856019 1020.82409,799.152766 1029.25165,741.763995 C1031.88526,724.915916 1031.88526,707.014832 1022.93098,692.272762 C1018.19047,684.375225 1010.28963,678.057195 1005.0224,670.686161 C985.533664,643.834534 995.541395,603.820346 1018.19047,579.074729 C1040.83955,554.855615 1073.49636,541.693053 1104.04627,528.530491 C1218.3451,482.198273 1291.03284,398.484379 1211.49771,283.706838 C1183.05468,242.639645 1136.70308,218.947033 1086.66442,232.109595 C1051.374,241.060138 1019.24392,258.961222 983.426773,266.332257 C947.609628,273.703291 905.998534,267.911764 883.87618,239.48063 C871.761557,223.159053 867.547776,202.625457 862.280549,183.144865 C852.272817,146.289691 837.524581,110.487523 817.509118,77.8443689 C798.5471,46.7807226 775.371301,33.0916581 752.195501,31.5121507 Z" id="Path" fill="#118AB2" transform="translate(633.549197, 469.899235) scale(-1, 1) translate(-633.549197, -469.899235) "></path>
                <path d="M752.195501,31.5121507 C707.424071,28.8796383 663.706085,72.5793441 663.706085,131.021119 C663.706085,235.795113 678.981044,260.540729 631.576,298.448908 C584.170955,336.357086 459.864395,282.653833 408.772292,323.194524 C357.153466,364.261718 366.634474,442.184085 248.121864,442.184085 C207.037492,442.184085 132.242867,433.760045 94.3188312,448.502114 C-1.01798008,489.042805 8.46302878,580.127734 62.7154683,649.099559 C99.0593356,699.117295 175.434129,705.961827 231.79346,680.163205 C273.404554,660.682614 322.916489,666.474141 361.89397,691.219757 C389.810274,709.120842 412.459351,733.866458 434.581705,759.138577 C455.650613,783.357691 476.719522,808.103308 505.162548,823.37188 C523.071121,832.848924 543.086584,838.113949 563.62877,840.746462 C612.087259,847.590994 661.599194,843.378974 707.950793,828.110402 C726.386088,822.318875 742.714492,807.576805 760.623065,803.891288 C781.691973,799.679268 808.554832,811.262323 823.82979,825.47789 C840.684917,841.272964 850.692649,862.859566 865.440885,880.76065 C888.616684,909.191784 921.800215,920.248336 949.189796,891.817202 C992.381059,852.856019 1020.82409,799.152766 1029.25165,741.763995 C1031.88526,724.915916 1031.88526,707.014832 1022.93098,692.272762 C1018.19047,684.375225 1010.28963,678.057195 1005.0224,670.686161 C985.533664,643.834534 995.541395,603.820346 1018.19047,579.074729 C1040.83955,554.855615 1073.49636,541.693053 1104.04627,528.530491 C1218.3451,482.198273 1291.03284,398.484379 1211.49771,283.706838 C1183.05468,242.639645 1136.70308,218.947033 1086.66442,232.109595 C1051.374,241.060138 1019.24392,258.961222 983.426773,266.332257 C947.609628,273.703291 905.998534,267.911764 883.87618,239.48063 C871.761557,223.159053 867.547776,202.625457 862.280549,183.144865 C852.272817,146.289691 837.524581,110.487523 817.509118,77.8443689 C798.5471,46.7807226 775.371301,33.0916581 752.195501,31.5121507 Z" id="Path" fill="#118AB2" transform="translate(633.549197, 469.899235) scale(-1, 1) translate(-633.549197, -469.899235) "></path>
                <path d="M752.195501,31.5121507 C707.424071,28.8796383 663.706085,72.5793441 663.706085,131.021119 C663.706085,235.795113 678.981044,260.540729 631.576,298.448908 C584.170955,336.357086 459.864395,282.653833 408.772292,323.194524 C357.153466,364.261718 366.634474,442.184085 248.121864,442.184085 C207.037492,442.184085 132.242867,433.760045 94.3188312,448.502114 C-1.01798008,489.042805 8.46302878,580.127734 62.7154683,649.099559 C99.0593356,699.117295 175.434129,705.961827 231.79346,680.163205 C273.404554,660.682614 322.916489,666.474141 361.89397,691.219757 C389.810274,709.120842 412.459351,733.866458 434.581705,759.138577 C455.650613,783.357691 476.719522,808.103308 505.162548,823.37188 C523.071121,832.848924 543.086584,838.113949 563.62877,840.746462 C612.087259,847.590994 661.599194,843.378974 707.950793,828.110402 C726.386088,822.318875 742.714492,807.576805 760.623065,803.891288 C781.691973,799.679268 808.554832,811.262323 823.82979,825.47789 C840.684917,841.272964 850.692649,862.859566 865.440885,880.76065 C888.616684,909.191784 921.800215,920.248336 949.189796,891.817202 C992.381059,852.856019 1020.82409,799.152766 1029.25165,741.763995 C1031.88526,724.915916 1031.88526,707.014832 1022.93098,692.272762 C1018.19047,684.375225 1010.28963,678.057195 1005.0224,670.686161 C985.533664,643.834534 995.541395,603.820346 1018.19047,579.074729 C1040.83955,554.855615 1073.49636,541.693053 1104.04627,528.530491 C1218.3451,482.198273 1291.03284,398.484379 1211.49771,283.706838 C1183.05468,242.639645 1136.70308,218.947033 1086.66442,232.109595 C1051.374,241.060138 1019.24392,258.961222 983.426773,266.332257 C947.609628,273.703291 905.998534,267.911764 883.87618,239.48063 C871.761557,223.159053 867.547776,202.625457 862.280549,183.144865 C852.272817,146.289691 837.524581,110.487523 817.509118,77.8443689 C798.5471,46.7807226 775.371301,33.0916581 752.195501,31.5121507 Z" id="Path" stroke="#2DB1EA" stroke-width="2" transform="translate(633.549197, 469.899235) scale(-1, 1) rotate(-3.000000) translate(-633.549197, -469.899235) "></path>
            </g>
        </g>
    </g>
</svg>