<?xml version="1.0" encoding="UTF-8"?>
<svg width="24px" height="24px" viewBox="0 0 24 24" version="1.1" xmlns="http://www.w3.org/2000/svg" xmlns:xlink="http://www.w3.org/1999/xlink">
    <title>16535A8A-6B40-4246-9932-94333A54A8E4</title>
    <g id="Artist-Index-Page" stroke="none" stroke-width="1" fill="none" fill-rule="evenodd">
        <g id="Artist-Index-Desktop" transform="translate(-733.000000, -4024.000000)">
            <g id="footer/desktop" transform="translate(3.000000, 3528.000000)">
                <g id="icons/twitter" transform="translate(730.000000, 496.000000)">
                    <rect id="Rectangle" x="0" y="0" width="24" height="24"></rect>
                    <path d="M17,3 L7,3 C4.791,3 3,4.791 3,7 L3,17 C3,19.209 4.791,21 7,21 L17,21 C19.209,21 21,19.209 21,17 L21,7 C21,4.791 19.209,3 17,3 Z M17.05,9.514 C17.05,9.6 17.05,9.685 17.05,9.857 C17.05,13.114 14.564,16.886 10.021,16.886 C8.65,16.886 7.364,16.457 6.25,15.772 C6.421,15.772 6.679,15.772 6.85,15.772 C7.964,15.772 9.079,15.343 9.936,14.743 C8.822,14.743 7.965,13.972 7.622,13.029 C7.793,13.029 7.965,13.115 8.051,13.115 C8.308,13.115 8.48,13.115 8.737,13.029 C7.623,12.772 6.766,11.829 6.766,10.629 C7.109,10.8 7.452,10.886 7.88,10.972 C7.194,10.372 6.766,9.686 6.766,8.829 C6.766,8.4 6.852,7.972 7.109,7.629 C8.309,9.086 10.109,10.115 12.166,10.2 C12.166,10.029 12.08,9.857 12.08,9.6 C12.08,8.229 13.194,7.114 14.566,7.114 C15.252,7.114 15.937,7.371 16.366,7.885 C16.966,7.799 17.48,7.542 17.909,7.285 C17.738,7.885 17.309,8.314 16.795,8.656 C17.309,8.57 17.738,8.485 18.252,8.227 C17.907,8.743 17.479,9.171 17.05,9.514 Z" id="Shape" fill="currentColor" fill-rule="nonzero"></path>
                </g>
            </g>
        </g>
    </g>
</svg>
