<?xml version="1.0" encoding="UTF-8"?>
<svg width="24px" height="24px" viewBox="0 0 24 24" version="1.1" xmlns="http://www.w3.org/2000/svg" xmlns:xlink="http://www.w3.org/1999/xlink">
    <title>0D6A4A8B-C085-4EF4-8953-B15259BCEC2D</title>
    <g id="Artist-Index-Page" stroke="none" stroke-width="1" fill="none" fill-rule="evenodd">
        <g id="Artist-Index-Desktop" transform="translate(-777.000000, -4024.000000)">
            <g id="footer/desktop" transform="translate(3.000000, 3528.000000)">
                <g id="icons/youtube" transform="translate(774.000000, 496.000000)">
                    <rect id="Rectangle" x="0" y="0" width="24" height="24"></rect>
                    <path d="M21.582,6.186 C21.352,5.326 20.674,4.648 19.814,4.418 C18.254,4 12,4 12,4 C12,4 5.746,4 4.186,4.418 C3.326,4.648 2.648,5.326 2.418,6.186 C2,7.746 2,12 2,12 C2,12 2,16.254 2.418,17.814 C2.648,18.674 3.326,19.352 4.186,19.582 C5.746,20 12,20 12,20 C12,20 18.254,20 19.814,19.582 C20.675,19.352 21.352,18.674 21.582,17.814 C22,16.254 22,12 22,12 C22,12 22,7.746 21.582,6.186 Z M10,14.598 L10,9.402 C10,9.017 10.417,8.777 10.75,8.969 L15.25,11.567 C15.583,11.759 15.583,12.241 15.25,12.433 L10.75,15.031 C10.417,15.224 10,14.983 10,14.598 Z" id="Shape" fill="currentColor" fill-rule="nonzero"></path>
                </g>
            </g>
        </g>
    </g>
</svg>
